<svg xmlns="http://www.w3.org/2000/svg" width="1200" height="1800" viewBox="0 0 1200 1800" role="img" aria-labelledby="title desc">
  <title id="title">Prambanan: The Stone Cosmos of Java</title>
  <desc id="desc">English ebook cover by Gokulakrishnan Ravindren, Krish Speaks.</desc>
  <defs>
    <linearGradient id="sky" x1="0" y1="0" x2="0" y2="1">
      <stop offset="0" stop-color="#100f19"/>
      <stop offset=".52" stop-color="#352233"/>
      <stop offset="1" stop-color="#a45935"/>
    </linearGradient>
    <radialGradient id="sun" cx=".5" cy=".44" r=".4">
      <stop offset="0" stop-color="#ffd88b" stop-opacity=".9"/>
      <stop offset=".45" stop-color="#d9864a" stop-opacity=".28"/>
      <stop offset="1" stop-color="#d9864a" stop-opacity="0"/>
    </radialGradient>
    <filter id="shadow"><feDropShadow dx="0" dy="12" stdDeviation="16" flood-opacity=".45"/></filter>
  </defs>
  <rect width="1200" height="1800" fill="url(#sky)"/>
  <rect width="1200" height="1800" fill="url(#sun)"/>
  <g fill="#0b0b0f" filter="url(#shadow)">
    <path d="M70 1505h1060v150H70z"/>
    <path d="M390 1510V1110h55l35-95 35 95h50l35-170 35 170h55v400z"/>
    <path d="M515 1115l85-325 85 325z"/>
    <path d="M550 885l50-250 50 250z"/>
    <path d="M575 695l25-205 25 205z"/>
    <path d="M135 1515v-250h40l30-100 30 100h40l30-190 30 190h38v250z"/>
    <path d="M165 1270l70-250 70 250z"/>
    <path d="M835 1515v-250h40l30-100 30 100h40l30-190 30 190h40v250z"/>
    <path d="M865 1270l70-250 70 250z"/>
  </g>
  <rect x="70" y="70" width="1060" height="1660" rx="8" fill="none" stroke="#d6aa62" stroke-width="3"/>
  <text x="600" y="185" text-anchor="middle" fill="#f6e6c2" font-family="Georgia,serif" font-size="48" letter-spacing="8">KRISH SPEAKS</text>
  <text x="600" y="395" text-anchor="middle" fill="#fff7e6" font-family="Georgia,serif" font-size="132" font-weight="700" letter-spacing="4">PRAMBANAN</text>
  <line x1="240" y1="445" x2="960" y2="445" stroke="#d6aa62" stroke-width="3"/>
  <text x="600" y="530" text-anchor="middle" fill="#f0c982" font-family="Georgia,serif" font-size="58" letter-spacing="5">THE STONE COSMOS</text>
  <text x="600" y="605" text-anchor="middle" fill="#f0c982" font-family="Georgia,serif" font-size="58" letter-spacing="9">OF JAVA</text>
  <text x="600" y="710" text-anchor="middle" fill="#eee1cf" font-family="Arial,sans-serif" font-size="34" letter-spacing="2">HISTORY • ARCHITECTURE • MYTH • MEANING</text>
  <text x="600" y="1665" text-anchor="middle" fill="#fff7e6" font-family="Georgia,serif" font-size="45" font-weight="700">GOKULAKRISHNAN RAVINDREN</text>
</svg>
